<svg xmlns="http://www.w3.org/2000/svg" width="142" height="111" viewBox="0 0 142 111">
    <g fill="none" fill-rule="evenodd">
        <path d="M8.326 45.49H.581V19.503a3.87 3.87 0 0 1 2-3.355l66.483-38.413a3.874 3.874 0 0 1 3.872 0l66.547 38.413a3.87 3.87 0 0 1 1.936 3.355v25.549h-7.745V21.735L71-14.432 8.326 21.697V45.49zM71 136.78a3.952 3.952 0 0 1-1.936-.515L2.582 97.852l3.873-6.71L71 128.432l64.61-37.29 3.873 6.71-66.547 38.413a3.952 3.952 0 0 1-1.936.516z"/>
        <path fill="#304A6C" fill-rule="nonzero" d="M117.537 110.097l-3.872-6.697 20.009-11.561V19.503L113.019 7.542l3.873-6.697 22.655 13.071a3.87 3.87 0 0 1 1.937 3.355v76.813a3.87 3.87 0 0 1-1.937 3.355l-22.01 12.658zM23.96 109.813L2.581 97.439a3.87 3.87 0 0 1-1.937-3.355V17.27a3.87 3.87 0 0 1 1.937-3.355L24.527 1.258l3.873 6.71L8.39 19.58v72.258l19.507 11.251-3.938 6.723z"/>
        <path fill="#304A6C" fill-rule="nonzero" d="M27.11 55v25.329l21.945 12.658L71 80.33l21.945 12.658 21.946-12.658V55L92.945 42.329v25.33L71 55 49.055 67.658V42.33z"/>
    </g>
</svg>
